Coordinates
version=1
nRows=20
nColumns=38
inDegrees=no

Units are S.I. units (second, meters, Newtons, ...)
If the header above contains a line with 'inDegrees', this indicates whether rotational values are in degrees (yes) or radians (no).

endheader
time	pelvis_tilt	pelvis_list	pelvis_rotation	pelvis_tx	pelvis_ty	pelvis_tz	hip_flexion_r	hip_adduction_r	hip_rotation_r	knee_angle_r	ankle_angle_r	subtalar_angle_r	mtp_angle_r	hip_flexion_l	hip_adduction_l	hip_rotation_l	knee_angle_l	ankle_angle_l	subtalar_angle_l	mtp_angle_l	lumbar_extension	lumbar_bending	lumbar_rotation	arm_flex_r	arm_add_r	arm_rot_r	elbow_flex_r	pro_sup_r	wrist_flex_r	wrist_dev_r	arm_flex_l	arm_add_l	arm_rot_l	elbow_flex_l	pro_sup_l	wrist_flex_l	wrist_dev_l
0.49	0.182123	1.50028	-1.88168	0.783915	0.89911	0.950523	-0.274897	-0.000430896	-0.112262	0.152381	0.255657	0	0	0.404072	-0.00330586	-0.302187	0.157646	0.148866	0	0	-0.202653	-0.0255363	-0.0190084	-0.091369	-0.0984025	-0.265295	0.324417	1.54509	0	0	-0.176492	-0.466999	0.700523	0.670436	0.614668	0	0
0.5	0.26493	1.5	-1.96867	0.784347	0.885457	0.947854	-0.280569	-0.0125317	-0.120788	0.169875	0.273201	0	0	0.379936	0.0183232	-0.281735	0.0667702	0.128853	0	0	-0.200934	-0.0325698	-0.0177726	-0.0947657	-0.0993635	-0.244005	0.327359	1.51082	0	0	-0.179511	-0.464683	0.701239	0.666877	0.610194	0	0
0.51	0.38352	1.50827	-2.09773	0.783942	0.872535	0.943961	-0.244303	-0.0371683	-0.178156	0.252838	0.320869	0	0	0.377151	0.0289365	-0.269507	0.00683951	0.121177	0	0	-0.189986	-0.0390242	-0.0092262	-0.0967917	-0.0981098	-0.239763	0.326771	1.5046	0	0	-0.182982	-0.463604	0.701367	0.666181	0.60965	0	0
0.52	0.427208	1.50524	-2.13773	0.785107	0.858985	0.941592	-0.281294	-0.0326727	-0.0996648	0.208999	0.297576	0	0	0.380689	0.0411091	-0.245258	0	0.11645	0	0	-0.191614	-0.0429587	-0.011659	-0.0998911	-0.0976056	-0.234055	0.325229	1.498	0	0	-0.183235	-0.45991	0.704053	0.660223	0.609132	0	0
0.53	0.359596	1.50594	-2.07461	0.784472	0.845497	0.939487	-0.282323	-0.0277177	-0.118679	0.239663	0.3051	0	0	0.383502	0.0377438	-0.235271	0	0.122966	0	0	-0.194297	-0.041428	-0.00688213	-0.10034	-0.0952379	-0.229375	0.323811	1.48928	0	0	-0.185265	-0.459152	0.704457	0.658342	0.607434	0	0
0.54	0.395763	1.509	-2.11578	0.784292	0.83144	0.936992	-0.28017	-0.0345921	-0.119994	0.265971	0.313288	0	0	0.389893	0.0400808	-0.232263	0	0.125434	0	0	-0.189815	-0.0439528	-0.00193081	-0.10211	-0.0930793	-0.226373	0.322276	1.47868	0	0	-0.189298	-0.458034	0.704587	0.65722	0.604013	0	0
0.55	0.456103	1.51102	-2.18301	0.78374	0.816701	0.934732	-0.277877	-0.0438673	-0.118915	0.292908	0.318394	0	0	0.393198	0.0433365	-0.234641	0	0.124461	0	0	-0.184176	-0.0484621	0.0046441	-0.104472	-0.0904343	-0.2232	0.319679	1.46773	0	0	-0.194866	-0.457443	0.704317	0.656712	0.599277	0	0
0.56	0.486762	1.51055	-2.22306	0.783515	0.801505	0.933209	-0.2804	-0.0601418	-0.12581	0.318303	0.326443	0	0	0.398427	0.0423481	-0.244919	0.0218966	0.128895	0	0	-0.180327	-0.0527896	0.0134227	-0.107206	-0.0882007	-0.219022	0.315143	1.45845	0	0	-0.201978	-0.456619	0.703731	0.657165	0.593973	0	0
0.57	0.515716	1.50946	-2.25881	0.782998	0.786431	0.931536	-0.283274	-0.0702864	-0.122252	0.344703	0.327453	0	0	0.421603	0.0370162	-0.266866	0.0932532	0.151194	0	0	-0.176832	-0.05778	0.0214366	-0.111019	-0.0855631	-0.214036	0.312205	1.44115	0	0	-0.209603	-0.458137	0.704245	0.661051	0.583503	0	0
0.58	0.670151	1.50951	-2.42507	0.781963	0.770992	0.928791	-0.257398	-0.102329	-0.165372	0.418472	0.346394	0	0	0.44595	0.0349844	-0.278995	0.15948	0.169264	0	0	-0.164073	-0.0688863	0.0341039	-0.117593	-0.0819802	-0.21565	0.311551	1.43198	0	0	-0.221854	-0.462085	0.701827	0.669333	0.57878	0	0
0.59	0.576549	1.51393	-2.33748	0.781533	0.754388	0.927684	-0.279121	-0.0863972	-0.103053	0.405261	0.318251	0	0	0.464297	0.0190451	-0.292164	0.239757	0.200037	0	0	-0.157392	-0.0627053	0.0431888	-0.126004	-0.0825239	-0.211379	0.311555	1.40567	0	0	-0.233424	-0.461818	0.705482	0.674011	0.558842	0	0
0.6	0.610443	1.51626	-2.38059	0.780923	0.737552	0.925832	-0.271656	-0.0950662	-0.0932712	0.44443	0.306317	0	0	0.476579	0.0129067	-0.294412	0.297625	0.219495	0	0	-0.144956	-0.064392	0.0529148	-0.134369	-0.0823036	-0.209993	0.309558	1.39353	0	0	-0.249888	-0.462973	0.702254	0.681719	0.551045	0	0
0.61	0.665844	1.51876	-2.44367	0.780589	0.720394	0.924014	-0.259427	-0.104505	-0.0853067	0.489752	0.288167	0	0	0.483631	0.0112589	-0.292065	0.337622	0.225982	0	0	-0.130761	-0.0661767	0.0597711	-0.141317	-0.0823803	-0.21148	0.304221	1.38713	0	0	-0.26862	-0.463563	0.69709	0.688849	0.544096	0	0
0.62	0.901851	1.51803	-2.6875	0.780372	0.703492	0.921257	-0.218761	-0.138695	-0.122761	0.57747	0.275286	0	0	0.493104	0.0193716	-0.290102	0.359859	0.205858	0	0	-0.110068	-0.0765178	0.064735	-0.148633	-0.0814846	-0.213544	0.301071	1.38588	0	0	-0.290205	-0.466689	0.689771	0.698052	0.540902	0	0
0.63	1.16244	1.51823	-2.94749	0.781148	0.686751	0.919044	-0.183952	-0.152569	-0.117083	0.641676	0.23791	0	0	0.508314	0.0273467	-0.282728	0.381647	0.167907	0	0	-0.0869131	-0.0828403	0.0603953	-0.153395	-0.0813321	-0.214868	0.2955	1.38543	0	0	-0.312074	-0.46914	0.684258	0.707265	0.52645	0	0
0.64	1.35361	1.51289	-3.1311	0.782544	0.670847	0.917708	-0.14833	-0.166094	-0.110555	0.709468	0.188413	0	0	0.524302	0.0388269	-0.270756	0.411929	0.138208	0	0	-0.0710549	-0.0919527	0.0493574	-0.155184	-0.080244	-0.215288	0.292928	1.38628	0	0	-0.327946	-0.473834	0.685088	0.716227	0.511176	0	0
0.65	1.47567	1.50238	3.04223	0.784242	0.655575	0.917053	-0.109568	-0.182076	-0.103471	0.78249	0.129374	0	0	0.540965	0.0555464	-0.255725	0.450396	0.127995	0	0	-0.0601607	-0.105557	0.0348963	-0.155699	-0.0778468	-0.216655	0.292739	1.38698	0	0	-0.339087	-0.481789	0.691015	0.7267	0.498628	0	0
0.66	1.50044	1.49153	3.03105	0.785777	0.64045	0.917119	-0.0741425	-0.196653	-0.093746	0.854923	0.0614079	0	0	0.551538	0.073025	-0.241547	0.491134	0.1273	0	0	-0.0563031	-0.119554	0.0207595	-0.155967	-0.0753265	-0.217452	0.292674	1.38824	0	0	-0.346771	-0.492098	0.700164	0.738235	0.486761	0	0
0.67	1.54027	1.48147	2.9971	0.786844	0.626066	0.917044	-0.030829	-0.192064	-0.00944366	0.922246	-0.00956951	0	0	0.56195	0.0852608	-0.235977	0.528314	0.12398	0	0	-0.050844	-0.131522	0.0163786	-0.155292	-0.0746688	-0.216854	0.290049	1.38969	0	0	-0.350477	-0.501744	0.711842	0.747899	0.477399	0	0
0.68	1.39124	1.48024	-3.12678	0.78743	0.610812	0.91907	-0.0182326	-0.192627	-0.0283422	0.978895	-0.0852578	0	0	0.544427	0.0908156	-0.232859	0.554481	0.121106	0	0	-0.0645687	-0.13529	0.00774811	-0.153307	-0.0748122	-0.214582	0.285739	1.39074	0	0	-0.351891	-0.510403	0.721117	0.754521	0.474739	0	0
